<svg width="20" height="13" viewBox="0 0 20 13" fill="none" xmlns="http://www.w3.org/2000/svg">
<path d="M13.6364 5.45455C15.1455 5.45455 16.3546 4.23636 16.3546 2.72727C16.3546 1.21818 15.1455 0 13.6364 0C12.1273 0 10.9091 1.21818 10.9091 2.72727C10.9091 4.23636 12.1273 5.45455 13.6364 5.45455ZM6.36365 5.45455C7.87274 5.45455 9.08183 4.23636 9.08183 2.72727C9.08183 1.21818 7.87274 0 6.36365 0C4.85456 0 3.63638 1.21818 3.63638 2.72727C3.63638 4.23636 4.85456 5.45455 6.36365 5.45455ZM6.36365 7.27273C4.24547 7.27273 1.52588e-05 8.33636 1.52588e-05 10.4545V12.7273H12.7273V10.4545C12.7273 8.33636 8.48183 7.27273 6.36365 7.27273ZM13.6364 7.27273C13.3727 7.27273 13.0727 7.29091 12.7546 7.31818C13.8091 8.08182 14.5455 9.10909 14.5455 10.4545V12.7273H20V10.4545C20 8.33636 15.7546 7.27273 13.6364 7.27273Z" fill="black"/>
</svg>
